<svg
  xmlns="http://www.w3.org/2000/svg"
  width="80"
  height="80"
  viewBox="0 0 80 80"
  fill="none"
>
  <g clip-path="url(#clip0_591_577)">
    <path
      d="M71.2727 0C66.4596 0 62.5454 3.91418 62.5454 8.72727C62.5454 10.2327 62.928 11.6495 63.6014 12.8873L49.3047 27.184C47.2717 25.5915 44.7638 24.726 42.1813 24.7258C39.5989 24.7255 37.0908 25.5905 35.0574 27.1825L23.9025 16.0276C24.4372 15.141 24.7222 14.1263 24.7273 13.0909C24.7273 9.88218 22.1178 7.27273 18.9091 7.27273C15.7004 7.27273 13.0909 9.88218 13.0909 13.0909C13.0909 16.2996 15.7004 18.9091 18.9091 18.9091C19.9855 18.9091 20.9804 18.5964 21.8458 18.0844L33.0007 29.2393C31.4108 31.2735 30.5471 33.7811 30.5471 36.3629C30.5471 38.9447 31.4108 41.4523 33.0007 43.4865L14.5804 61.9084C12.9809 60.4476 10.8934 59.6373 8.72727 59.6364C3.91418 59.6364 0 63.5505 0 68.3636C0 73.1767 3.91418 77.0909 8.72727 77.0909C13.5404 77.0909 17.4545 73.1767 17.4545 68.3636C17.4564 66.9104 17.0933 65.48 16.3985 64.2036L35.0589 45.5433C36.7022 46.8246 38.6612 47.6382 40.7287 47.8982V62.6764C36.608 63.3716 33.456 66.9556 33.456 71.2727C33.456 76.0858 37.3702 80 42.1833 80C46.9964 80 50.9105 76.0858 50.9105 71.2727C50.9105 66.9571 47.7585 63.3731 43.6378 62.6764V47.8982C45.7054 47.6382 47.6643 46.8246 49.3076 45.5433L60.4625 56.6982C59.9269 57.585 59.6415 58.6003 59.6364 59.6364C59.6364 62.8451 62.2458 65.4545 65.4545 65.4545C68.6633 65.4545 71.2727 62.8451 71.2727 59.6364C71.2727 56.4276 68.6633 53.8182 65.4545 53.8182C64.3782 53.8182 63.3833 54.1309 62.5178 54.6429L51.3629 43.488C52.9528 41.4538 53.8165 38.9462 53.8165 36.3644C53.8165 33.7825 52.9528 31.2749 51.3629 29.2407L65.4211 15.1825C67.0199 16.6434 69.107 17.4538 71.2727 17.4545C76.0858 17.4545 80 13.5404 80 8.72727C80 3.91418 76.0858 0 71.2727 0ZM16 13.0909C16 11.4865 17.3047 10.1818 18.9091 10.1818C20.5135 10.1818 21.8182 11.4865 21.8182 13.0909C21.8182 14.6953 20.5135 16 18.9091 16C17.3047 16 16 14.6953 16 13.0909ZM8.72727 74.1818C5.51854 74.1818 2.90909 71.5724 2.90909 68.3636C2.90909 65.1549 5.51854 62.5454 8.72727 62.5454C11.936 62.5454 14.5455 65.1549 14.5455 68.3636C14.5455 71.5724 11.936 74.1818 8.72727 74.1818ZM48 71.2727C48 74.4814 45.3905 77.0909 42.1818 77.0909C38.9731 77.0909 36.3636 74.4814 36.3636 71.2727C36.3636 68.064 38.9731 65.4545 42.1818 65.4545C45.3905 65.4545 48 68.064 48 71.2727ZM42.1818 45.0909C37.3687 45.0909 33.4545 41.1767 33.4545 36.3636C33.4545 31.5505 37.3687 27.6364 42.1818 27.6364C46.9949 27.6364 50.9091 31.5505 50.9091 36.3636C50.9091 41.1767 46.9949 45.0909 42.1818 45.0909ZM68.3636 59.6364C68.3636 61.2407 67.0589 62.5454 65.4545 62.5454C63.8502 62.5454 62.5454 61.2407 62.5454 59.6364C62.5454 58.032 63.8502 56.7273 65.4545 56.7273C67.0589 56.7273 68.3636 58.032 68.3636 59.6364ZM71.2727 14.5455C68.064 14.5455 65.4545 11.936 65.4545 8.72727C65.4545 5.51854 68.064 2.90909 71.2727 2.90909C74.4814 2.90909 77.0909 5.51854 77.0909 8.72727C77.0909 11.936 74.4814 14.5455 71.2727 14.5455Z"
      fill="#013453"
    />
  </g>
  <defs>
    <clipPath id="clip0_591_577">
      <rect width="80" height="80" fill="white" />
    </clipPath>
  </defs>
</svg>