 <svg xmlns="http://www.w3.org/2000/svg" width="24" height="25" viewBox="0 0 24 25" fill="none"
                aria-hidden="true">
                <path fill-rule="evenodd" clip-rule="evenodd"
                    d="M0 4.92314C0 4.41333 0.413272 4.00006 0.923076 4.00006H23.0769C23.5867 4.00006 24 4.41333 24 4.92314C24 5.43297 23.5867 5.84622 23.0769 5.84622H0.923076C0.413272 5.84622 0 5.43297 0 4.92314Z"
                    fill="#013453" />
                <path fill-rule="evenodd" clip-rule="evenodd"
                    d="M0 19.6924C0 19.1826 0.413272 18.7693 0.923076 18.7693H23.0769C23.5867 18.7693 24 19.1826 24 19.6924C24 20.2023 23.5867 20.6155 23.0769 20.6155H0.923076C0.413272 20.6155 0 20.2023 0 19.6924Z"
                    fill="#013453" />
                <path fill-rule="evenodd" clip-rule="evenodd"
                    d="M4.9231 12.3077C4.9231 11.7979 5.33634 11.3846 5.84617 11.3846H23.0769C23.5867 11.3846 24 11.7979 24 12.3077C24 12.8176 23.5867 13.2308 23.0769 13.2308H5.84617C5.33634 13.2308 4.9231 12.8176 4.9231 12.3077Z"
                    fill="#013453" />
            </svg>