<svg xmlns="http://www.w3.org/2000/svg" width="16" height="16" viewBox="0 0 16 16" fill="none">
    <path
        d="M16 16.0001V10.1401C16 7.26006 15.38 5.06006 12.02 5.06006C10.4 5.06006 9.32004 5.94006 8.88004 6.78006H8.84004V5.32006H5.66003V16.0001H8.98004V10.7001C8.98004 9.30006 9.24004 7.96006 10.96 7.96006C12.66 7.96006 12.68 9.54006 12.68 10.7801V15.9801H16V16.0001Z"
        fill="#fff" />
    <path d="M0.26001 5.32007H3.58001V16.0001H0.26001V5.32007Z" fill="#fff" />
    <path
        d="M1.92 0C0.860001 0 0 0.86 0 1.92C0 2.98 0.860001 3.86 1.92 3.86C2.98 3.86 3.84001 2.98 3.84001 1.92C3.84001 0.86 2.98 0 1.92 0Z"
        fill="#fff" />
</svg>