<svg xmlns="http://www.w3.org/2000/svg" width="80" height="80" viewBox="0 0 80 80" fill="none">
    <path
        d="M72.1523 26.2387C59.9598 -2.28876 19.1811 -1.86126 7.57856 26.9062C-1.77769 49.5875 15.5323 75.0875 40.0061 74.9125C64.7673 75.075 82.0811 49.0225 72.1523 26.2387ZM69.8561 27.2187C72.383 33.1133 73.0849 39.63 71.8711 45.9275L67.3048 43.9825C66.9459 43.8279 66.6296 43.5891 66.3825 43.2863C66.1355 42.9836 65.965 42.6257 65.8856 42.2431C65.8061 41.8605 65.82 41.4644 65.926 41.0883C66.0321 40.7122 66.2272 40.3672 66.4948 40.0825C67.1904 39.5085 67.7221 38.7609 68.036 37.9153C68.3499 37.0698 68.4348 36.1564 68.2823 35.2675C68.1448 34.5021 67.826 33.7807 67.3526 33.1637C66.8792 32.5467 66.2648 32.0521 65.5611 31.7212L62.3736 30.1962C61.9863 30.0108 61.6551 29.726 61.4135 29.371C61.172 29.016 61.0288 28.6033 60.9986 28.175C61.0798 26.8834 60.6585 25.6104 59.8229 24.6222C58.9873 23.634 57.802 23.007 56.5148 22.8725C56.1542 22.8387 55.8057 22.7245 55.495 22.5382C55.1844 22.3519 54.9195 22.0982 54.7199 21.7959C54.5203 21.4937 54.3911 21.1505 54.3418 20.7916C54.2924 20.4328 54.3242 20.0674 54.4348 19.7225L56.8111 12.2175C62.6331 15.7159 67.1992 20.9676 69.8561 27.2187ZM9.89481 27.8375C12.264 21.9561 16.3023 16.8963 21.5119 13.2819C26.7216 9.66749 32.8749 7.65631 39.2136 7.49624C39.7936 11.8675 39.1286 15.4175 37.1998 18.0337C35.4443 20.2805 32.9378 21.8191 30.1398 22.3675C25.6898 21.1587 22.1623 21.7375 19.6586 24.0925C13.2061 30.1587 16.3711 46.0587 16.7186 47.7025C16.8941 51.5622 15.6852 55.3577 13.3098 58.405C10.2571 53.9897 8.34729 48.8861 7.7513 43.5515C7.15532 38.2168 7.89181 32.8176 9.89481 27.8375ZM52.7323 69.7962C48.8154 71.4797 44.6034 72.3695 40.3402 72.4142C36.0771 72.4588 31.8474 71.6573 27.8961 70.0562C26.07 69.3154 24.3146 68.4113 22.6511 67.355C24.1323 65.0725 25.0198 65.0925 26.5923 65.1425C27.805 65.2247 29.023 65.1064 30.1973 64.7925C35.3486 63.36 36.4223 59.9 37.2123 55.855C37.4998 53.6837 42.5448 54.2275 43.2473 54.9175C44.4011 61.7487 46.4573 64.6987 53.6586 61.09C54.2613 60.7756 54.899 60.5335 55.5586 60.3687C56.0486 60.5037 57.5936 62.0137 59.9298 65.5162C57.7412 67.2704 55.3187 68.711 52.7323 69.7962ZM61.8636 63.9037C55.1198 54.0562 55.6636 58.9162 48.4673 60.1737C46.5761 60.2662 45.9798 55.7925 45.6673 54.2787C45.3023 52.3162 42.0548 51.7912 40.3873 51.7875C37.2811 51.8362 35.1923 53.1262 34.7611 55.3812C34.1486 60.1975 31.5986 62.9187 26.6673 62.6475C24.4048 62.5787 22.6911 62.7987 20.6048 65.935C18.4669 64.3508 16.5349 62.5062 14.8536 60.4437C17.9235 56.7696 19.4718 52.0603 19.1811 47.2812C19.1461 47.1212 15.7348 31.2062 21.3711 25.9087C23.2786 23.9387 26.5661 24.0012 30.2236 24.8837C33.7789 24.303 36.9817 22.3956 39.1861 19.5462C41.4736 16.4625 42.3198 12.4175 41.7361 7.52749C46.213 7.76678 50.5902 8.94071 54.5861 10.9737L52.0561 18.9662C51.8376 19.667 51.7779 20.4076 51.8813 21.1343C51.9848 21.861 52.2489 22.5555 52.6543 23.1674C53.0597 23.7793 53.5963 24.2933 54.2252 24.6719C54.854 25.0505 55.5593 25.2843 56.2898 25.3562C56.8606 25.4118 57.393 25.6683 57.7923 26.0799C58.1915 26.4915 58.4316 27.0316 58.4698 27.6037C58.4187 28.5963 58.6573 29.5824 59.1567 30.4418C59.656 31.3011 60.3946 31.9967 61.2823 32.4437L64.4848 33.9737C64.8283 34.1396 65.128 34.3839 65.3597 34.6869C65.5914 34.9899 65.7486 35.3432 65.8185 35.7182C65.8885 36.0932 65.8693 36.4794 65.7625 36.8456C65.6556 37.2118 65.4642 37.5477 65.2036 37.8262C64.4962 38.4134 63.9588 39.1792 63.6471 40.0441C63.3354 40.909 63.2608 41.8415 63.4311 42.745C63.5923 43.524 63.9399 44.2524 64.4441 44.8678C64.9482 45.4832 65.594 45.9673 66.3261 46.2787L70.8936 48.2237C71.0287 48.2828 71.1591 48.3522 71.2836 48.4312C69.6918 54.3852 66.4219 59.756 61.8636 63.9037Z"
        fill="#013453" />
</svg>