<svg xmlns="http://www.w3.org/2000/svg" width="80" height="80" viewBox="0 0 80 80" fill="none">
  <path d="M67.9998 77.3327H58.2513C61.3393 67.8681 63.4352 54.0855 57.7244 39.2411C53.7293 28.8524 47.2876 21.3212 40.9336 15.9999H44.0002C44.3538 15.9999 44.6929 15.8594 44.9429 15.6094C45.193 15.3593 45.3334 15.0202 45.3334 14.6666C45.3334 14.313 45.193 13.9739 44.9429 13.7238C44.6929 13.4738 44.3538 13.3333 44.0002 13.3333H37.5176C31.9981 9.31493 26.9123 6.93651 24.0003 5.75995V1.33327C24.0003 0.979665 23.8599 0.640543 23.6098 0.390506C23.3598 0.140469 23.0207 0 22.6671 0C22.3135 0 21.9743 0.140469 21.7243 0.390506C21.4743 0.640543 21.3338 0.979665 21.3338 1.33327V13.3332H17.3338C16.9802 13.3332 16.6411 13.4736 16.3911 13.7237C16.141 13.9737 16.0005 14.3128 16.0005 14.6664C16.0005 15.0201 16.141 15.3592 16.3911 15.6092C16.6411 15.8592 16.9802 15.9997 17.3338 15.9997H21.3338V77.3325H12.0003C11.2639 77.3325 10.667 77.9295 10.667 78.6658C10.667 79.402 11.264 79.9994 12.0003 79.9994H56.3829C56.3841 79.9994 56.3854 80 56.3866 80C56.388 80 56.3895 79.9994 56.3909 79.9994H67.9998C68.3509 79.9956 68.6864 79.8534 68.9334 79.6038C69.1803 79.3541 69.3188 79.0172 69.3188 78.666C69.3188 78.3149 69.1803 77.9779 68.9334 77.7283C68.6864 77.4786 68.3509 77.3365 67.9998 77.3327ZM55.4335 77.3327H24.0002V8.64743C31.1681 11.7221 47.7348 20.6947 55.2356 40.1983C60.8389 54.765 58.5291 68.281 55.4335 77.3327Z" fill="#013453"/>
  <path d="M27.9999 34.6664H47.3729C47.8573 34.6664 48.3032 34.4041 48.5382 33.9802C48.6539 33.7723 48.7118 33.5373 48.7058 33.2995C48.6998 33.0617 48.6303 32.8298 48.5043 32.628C42.5987 23.1456 34.453 17.2284 28.6587 13.9341C28.4559 13.8188 28.2264 13.7587 27.9931 13.7599C27.7599 13.7611 27.531 13.8234 27.3294 13.9407C27.1277 14.058 26.9604 14.2261 26.8441 14.4283C26.7278 14.6305 26.6665 14.8597 26.6665 15.093V33.3331C26.6666 33.6868 26.8071 34.0259 27.0572 34.2759C27.3072 34.5259 27.6463 34.6664 27.9999 34.6664ZM29.3332 17.4386C34.1625 20.4476 40.1201 25.1476 44.8968 31.9997H29.3332V17.4386ZM55.9992 57.3355C55.9992 57.3345 55.9997 57.3337 55.9997 57.3328C55.9997 57.3317 55.9991 57.3309 55.9991 57.3298C55.848 51.8149 54.7693 46.4157 52.7561 41.1746L52.6363 40.8681C52.5414 40.6131 52.3708 40.3933 52.1473 40.2381C51.9239 40.0829 51.6584 39.9997 51.3863 39.9997H27.9999C27.6463 39.9997 27.3072 40.1401 27.0572 40.3902C26.8071 40.6402 26.6667 40.9793 26.6667 41.3329V73.3327C26.6667 73.6863 26.8071 74.0254 27.0572 74.2754C27.3072 74.5255 27.6463 74.666 27.9999 74.666H52.5199C52.8084 74.6659 53.0891 74.5723 53.3199 74.3991C53.5507 74.226 53.7191 73.9826 53.7999 73.7056C55.4158 68.1643 56.1455 62.6953 55.9992 57.3355ZM29.3332 42.6664H50.4685C51.1193 44.4243 51.6235 46.2063 52.054 47.9996H29.3332V42.6664ZM29.3332 50.6663H52.6199C52.9326 52.4302 53.141 54.2111 53.244 55.9995H29.3332V50.6663ZM51.5108 71.9994H29.3332V66.6662H52.6474C52.3536 68.4357 51.9983 70.2115 51.5108 71.9994ZM53.0372 63.9995H29.3332V58.6662H53.3154C53.3161 60.4329 53.2371 62.2093 53.0372 63.9995Z" fill="#013453"/>
</svg>